<svg width="742" height="381" viewBox="0 0 742 381" fill="none" xmlns="http://www.w3.org/2000/svg">
<path fill-rule="evenodd" clip-rule="evenodd" d="M127.341 15.0754C114.692 5.02515 96.884 0 73.9173 0H0V175.243H40.28V116.145H65.084L99.5693 175.243H146.845L108.473 110.907C120.487 106.731 129.744 100.22 136.387 91.3019C142.959 82.3841 146.28 71.2721 146.28 57.8246C146.28 39.3518 139.991 25.1257 127.341 15.0754ZM95.824 78.3498C90.4533 82.4548 82.7507 84.5074 72.8573 84.5074H40.2093V38.5025H72.8573C82.7507 38.5025 90.4533 40.555 95.824 44.6601C101.265 48.7651 103.951 54.3565 103.951 61.5049C103.951 68.6534 101.195 74.2447 95.824 78.3498ZM193.556 159.318C206.771 171.704 225.568 177.862 249.948 177.862C274.328 177.862 293.055 171.704 306.128 159.318C319.201 146.932 325.703 129.167 325.703 105.953V0H285.493V102.555C285.493 114.234 282.384 123.293 276.095 129.875C269.805 136.457 261.255 139.713 249.948 139.713C238.641 139.713 229.808 136.387 223.448 129.875C217.088 123.364 213.908 114.234 213.908 102.555V0H173.699V105.953C173.699 129.167 180.341 146.932 193.556 159.318ZM73.14 204.757C93.704 204.757 109.816 209.074 121.617 217.709C133.348 226.344 139.213 238.305 139.213 253.664C139.213 262.581 137.093 270.084 132.924 276.312C128.755 282.541 122.677 287.353 114.621 290.821C124.515 294.148 132.359 299.102 138.012 305.755C143.665 312.408 146.492 320.831 146.492 331.164C146.492 338.666 144.937 345.39 141.899 351.406C138.86 357.422 134.479 362.589 128.825 366.836C123.172 371.082 116.247 374.409 108.049 376.674C99.852 378.938 90.6653 380.071 80.348 380.071H0V204.757H73.14ZM70.808 279.285C78.7933 279.285 85.1533 277.657 89.888 274.33C94.6227 271.004 96.9547 266.12 96.9547 259.68C96.9547 253.239 94.6227 248.709 89.888 245.524C85.1533 242.41 78.7933 240.782 70.808 240.782H40.2093V279.214H70.7373L70.808 279.285ZM76.8147 343.904C85.7187 343.904 92.5027 342.134 97.1667 338.666C101.901 335.198 104.233 330.102 104.233 323.52C104.233 310.639 94.8347 304.198 76.0373 304.198H40.2093V343.975H76.744L76.8147 343.904ZM237.652 279.851L198.997 204.757H151.792L217.583 324.299V380H257.792V324.299L323.583 204.757H276.307L237.652 279.851ZM742 380H644.127L572.612 308.374L549.999 331.023H452.125L523.711 259.326L362.591 97.9549V0L572.612 210.348L673.595 109.208L673.948 206.88L621.584 259.397L742 380ZM506.539 380L539.823 351.265H426.403L393.189 380H506.539Z" fill="url(#paint0_linear_8_281)"/>
<defs>
<linearGradient id="paint0_linear_8_281" x1="0" y1="0" x2="197.885" y2="516.731" gradientUnits="userSpaceOnUse">
<stop offset="0.161458" stop-color="#5CA3EB"/>
<stop offset="0.573088" stop-color="#B53648"/>
<stop offset="1" stop-color="#FAC9B8"/>
</linearGradient>
</defs>
</svg>
