<svg width="1152" height="293" viewBox="0 0 1152 293" fill="none" xmlns="http://www.w3.org/2000/svg">
<path fill-rule="evenodd" clip-rule="evenodd" d="M1152 292.537H1076.61L1021.52 237.396L1004.1 254.832H928.709L983.852 199.638L859.741 75.4089V0L1021.52 161.933L1099.31 84.0722L1099.58 159.263L1059.24 199.692L1152 292.537ZM234.994 267.745C251.107 282.783 273.915 290.303 303.527 290.303L303.473 290.357C333.086 290.357 355.839 282.838 371.68 267.8C387.52 252.762 395.468 231.185 395.468 203.016V74.4282H346.64V198.875C346.64 213.041 342.829 224.102 335.208 232.057C327.588 240.012 317.191 243.989 303.473 243.989C289.756 243.989 279.032 240.012 271.302 232.057C263.572 224.102 259.708 213.041 259.708 198.875V74.4282H210.88V202.961C210.88 231.131 218.882 252.707 234.994 267.745ZM154.649 92.6811C139.298 80.5306 117.688 74.4282 89.7627 74.4282H0V287.142H48.8279V215.384H78.9846L120.845 287.142H178.273L131.677 209.064C146.266 203.996 157.534 196.041 165.59 185.253C173.592 174.465 177.62 160.898 177.62 144.606C177.62 122.158 169.999 104.831 154.649 92.6811ZM116.436 169.507C109.849 174.465 100.541 176.971 88.5107 176.971V176.917H48.8823V121.068H88.5107C100.595 121.068 109.904 123.575 116.436 128.533C123.022 133.546 126.288 140.357 126.288 149.02C126.288 157.683 122.968 164.548 116.436 169.507ZM525.512 74.4282C550.443 74.4282 570.094 79.6589 584.356 90.1202C598.618 100.582 605.749 115.129 605.749 133.764C605.749 144.552 603.19 153.706 598.128 161.225C593.065 168.744 585.662 174.628 575.919 178.824C587.949 182.856 597.42 188.849 604.279 196.913C611.138 204.977 614.567 215.221 614.567 227.698C614.567 236.797 612.716 245.025 609.015 252.326C605.313 259.627 600.033 265.893 593.174 271.069C586.316 276.245 577.878 280.223 567.971 282.947C558.01 285.726 546.85 287.088 534.331 287.088H436.62V74.4282H525.403H525.512ZM522.681 164.93C532.425 164.93 540.155 162.914 545.816 158.882C551.532 154.85 554.362 148.911 554.362 141.119C554.362 133.328 551.532 127.77 545.816 123.956C540.101 120.142 532.371 118.235 522.681 118.235H485.557V164.875H522.681V164.93ZM529.976 243.335C540.754 243.335 549.028 241.211 554.689 236.961C560.405 232.711 563.235 226.608 563.235 218.544C563.235 202.907 551.804 195.061 528.996 195.061H485.557V243.335H529.976ZM725.341 165.529L678.419 74.4282H621.045L700.955 219.525V287.142H749.783V219.525L829.693 74.4282H772.264L725.341 165.529ZM970.624 292.537L996.208 270.415H908.895L883.311 292.537H970.624Z" fill="#0A0A0A"/>
</svg>