<svg width="1495" height="380" viewBox="0 0 1495 380" fill="none" xmlns="http://www.w3.org/2000/svg">
<path fill-rule="evenodd" clip-rule="evenodd" d="M1494.6 379.537H1396.79L1325.32 307.998L1302.72 330.619H1204.91L1276.45 259.009L1115.43 97.8355V0L1325.32 210.092L1426.24 109.075L1426.59 206.628L1374.26 259.08L1494.6 379.537ZM200.641 120.244C180.725 104.48 152.688 96.5631 116.458 96.5631H0V372.538H63.3492V279.439H102.475L156.784 372.538H231.292L170.838 271.239C189.765 264.665 204.384 254.344 214.836 240.347C225.218 226.351 230.444 208.749 230.444 187.612C230.444 158.488 220.557 136.008 200.641 120.244ZM151.063 219.918C142.518 226.351 130.441 229.602 114.834 229.602V229.532H63.4198V157.074H114.834C130.512 157.074 142.589 160.326 151.063 166.759C159.609 173.262 163.846 182.098 163.846 193.338C163.846 204.578 159.538 213.485 151.063 219.918ZM304.882 347.373C325.786 366.883 355.377 376.638 393.796 376.638L393.726 376.709C432.145 376.709 461.665 366.954 482.217 347.443C502.768 327.933 513.079 299.939 513.079 263.392V96.5632H449.73V258.02C449.73 276.399 444.787 290.75 434.899 301.07C425.012 311.391 411.523 316.552 393.726 316.552C375.929 316.552 362.016 311.391 351.987 301.07C341.959 290.75 336.945 276.399 336.945 258.02V96.5632H273.595V263.322C273.595 299.869 283.977 327.862 304.882 347.373ZM681.799 96.5632C714.144 96.5632 739.639 103.349 758.143 116.922C776.646 130.495 785.898 149.369 785.898 173.545C785.898 187.542 782.578 199.418 776.01 209.173C769.442 218.928 759.838 226.563 747.196 232.006C762.804 237.237 775.092 245.013 783.991 255.475C792.889 265.937 797.339 279.227 797.339 295.415C797.339 307.22 794.938 317.895 790.135 327.367C785.333 336.84 778.482 344.969 769.584 351.685C760.685 358.4 749.739 363.561 736.885 367.095C723.961 370.7 709.483 372.468 693.24 372.468H566.471V96.5632H681.658H681.799ZM678.126 213.98C690.768 213.98 700.797 211.364 708.141 206.133C715.557 200.902 719.229 193.197 719.229 183.088C719.229 172.979 715.557 165.769 708.141 160.821C700.726 155.872 690.697 153.398 678.126 153.398H629.961V213.909H678.126V213.98ZM687.59 315.703C701.573 315.703 712.308 312.946 719.653 307.433C727.068 301.919 730.741 294.001 730.741 283.539C730.741 263.251 715.91 253.072 686.319 253.072H629.961V315.703H687.59ZM941.057 214.757L880.179 96.5632H805.742L909.418 284.812V372.538H972.767V284.812L1076.44 96.5632H1001.93L941.057 214.757ZM1259.29 379.536L1292.48 350.836H1179.2L1146.01 379.536H1259.29Z" fill="url(#paint0_linear_8_282)"/>
<defs>
<linearGradient id="paint0_linear_8_282" x1="0" y1="0" x2="108.423" y2="571.095" gradientUnits="userSpaceOnUse">
<stop stop-color="#FAC9B8"/>
<stop offset="1" stop-color="#5CA3EB"/>
</linearGradient>
</defs>
</svg>